<?xml version="1.0" encoding="utf-8"?>
<!-- Generator: Adobe Illustrator 17.1.0, SVG Export Plug-In . SVG Version: 6.00 Build 0)  -->
<!DOCTYPE svg PUBLIC "-//W3C//DTD SVG 1.1//EN" "http://www.w3.org/Graphics/SVG/1.1/DTD/svg11.dtd">
<svg version="1.1" id="Ebene_1" xmlns="http://www.w3.org/2000/svg" xmlns:xlink="http://www.w3.org/1999/xlink" x="0px" y="0px"
	 viewBox="0 0 188.6 48.1" enable-background="new 0 0 188.6 48.1" xml:space="preserve">
<g>
	<g>
		<g>
			<path d="M4.1,41.7c-0.3-0.7-0.8-1.2-1.6-1.2c-1.1,0-1.9,0.7-1.9,2.6c0,1.5,0.7,2.6,1.9,2.6c0.9,0,1.3-0.5,1.8-1.2l0.6,0.3
				c-0.5,0.9-1.2,1.5-2.3,1.5C0.9,46.1,0,44.8,0,43c0-2.1,1-3.1,2.6-3.1c1.1,0,1.8,0.6,2.2,1.6L4.1,41.7z"/>
			<path d="M11.8,43c0,1.6-0.6,3.1-2.5,3.1c-1.9,0-2.5-1.5-2.5-3.1c0-1.6,0.6-3.1,2.5-3.1C11.2,39.9,11.8,41.4,11.8,43z M7.6,43
				c0,1.6,0.5,2.6,1.8,2.6c1.2,0,1.8-0.9,1.8-2.6c0-1.6-0.5-2.6-1.8-2.6C8.1,40.5,7.6,41.4,7.6,43z"/>
			<path d="M14.3,46v-6H15V41c0.6-0.7,1.2-1.1,2-1.1c1.2,0,1.8,0.7,1.8,2V46h-0.7v-4c0-1-0.3-1.5-1.2-1.5c-0.7,0-1.2,0.4-1.9,1.1V46
				H14.3z"/>
			<path d="M21.9,40v-2h0.7v2h1.3v0.6h-1.3V45c0,0.4,0.2,0.6,0.6,0.6c0.2,0,0.5-0.1,0.7-0.1V46c-0.2,0-0.5,0.1-0.7,0.1
				c-1,0-1.3-0.3-1.3-1v-4.5H21V40H21.9z"/>
			<path d="M26.4,43c0,1.4,0.6,2.5,1.9,2.5c0.8,0,1.2-0.3,1.7-1.2l0.6,0.3c-0.6,1.1-1.2,1.5-2.4,1.5c-1.6,0-2.6-1-2.6-3.1
				c0-1.9,0.9-3.1,2.5-3.1c1.6,0,2.4,1.3,2.4,3.1H26.4z M29.9,42.5c-0.1-1.2-0.7-2-1.7-2c-1.2,0-1.7,1.2-1.7,2H29.9z"/>
			<path d="M33.1,46v-6h0.7V41c0.6-0.7,1.2-1.1,2-1.1c1.2,0,1.8,0.7,1.8,2V46h-0.7v-4c0-1-0.3-1.5-1.2-1.5c-0.7,0-1.2,0.4-1.9,1.1
				V46H33.1z"/>
			<path d="M40.7,40v-2h0.7v2h1.3v0.6h-1.3V45c0,0.4,0.2,0.6,0.6,0.6c0.2,0,0.5-0.1,0.7-0.1V46c-0.2,0-0.5,0.1-0.7,0.1
				c-1,0-1.3-0.3-1.3-1v-4.5h-0.9V40H40.7z"/>
			<path d="M59.8,46v-6h0.7v0.9c0.6-0.6,1.1-1,2-1c0.7,0,1.3,0.4,1.5,1.1c0.5-0.6,1.1-1.1,2-1.1c1,0,1.6,0.6,1.6,1.6V46h-0.7v-4.5
				c0-0.7-0.4-1-1-1c-0.5,0-1.4,0.6-1.8,1.1V46h-0.7v-4.5c0-0.7-0.4-1-1-1c-0.5,0-1.4,0.6-1.8,1.1V46H59.8z"/>
			<path d="M73.8,46l-0.1-0.7c-0.7,0.6-1.3,0.8-2.2,0.8c-0.9,0-1.6-0.6-1.6-1.6c0-1.6,1.3-1.9,3.8-2.5v-0.4c0-0.8-0.3-1.2-1.4-1.2
				c-0.7,0-1.3,0.4-1.7,1.1l-0.5-0.3c0.5-1,1.3-1.4,2.2-1.4c1.4,0,2,0.6,2,1.9v3.1c0,0.3,0,0.7,0.1,1.1H73.8z M73.7,42.6
				c-2.7,0.6-3.1,1.2-3.1,1.9c0,0.7,0.4,1,1.1,1c0.6,0,1.4-0.4,2-1V42.6z"/>
			<path d="M77.4,46v-6h0.7V41c0.6-0.7,1.2-1.1,2-1.1c1.2,0,1.8,0.7,1.8,2V46h-0.7v-4c0-1-0.3-1.5-1.2-1.5c-0.7,0-1.2,0.4-1.9,1.1
				V46H77.4z"/>
			<path d="M88.2,46l-0.1-0.7c-0.7,0.6-1.3,0.8-2.2,0.8c-0.9,0-1.6-0.6-1.6-1.6c0-1.6,1.3-1.9,3.8-2.5v-0.4c0-0.8-0.3-1.2-1.4-1.2
				c-0.7,0-1.3,0.4-1.7,1.1l-0.5-0.3c0.5-1,1.3-1.4,2.2-1.4c1.4,0,2,0.6,2,1.9v3.1c0,0.3,0,0.7,0.1,1.1H88.2z M88.1,42.6
				c-2.7,0.6-3.1,1.2-3.1,1.9c0,0.7,0.4,1,1.1,1c0.6,0,1.4-0.4,2-1V42.6z"/>
			<path d="M96.4,40.4c-0.3,0-0.7,0-1,0.3c0.3,0.3,0.4,0.7,0.4,1.3c0,1.5-1,2.1-2.3,2.1c-0.4,0-0.7-0.1-1-0.2
				c-0.4,0.1-0.6,0.4-0.6,0.6c0,0.3,0.2,0.5,1.9,0.5c1.8,0,2.5,0.6,2.5,1.6c0,0.9-0.7,1.6-2.7,1.6s-2.6-0.7-2.6-1.4
				c0-0.5,0.2-1,1-1.3v0c-0.4-0.1-0.8-0.3-0.8-0.8c0-0.5,0.5-0.9,0.9-1c-0.5-0.4-0.9-0.9-0.9-1.6c0-1.3,0.9-2.2,2.4-2.2
				c0.6,0,1,0.2,1.4,0.4c0.3-0.3,0.8-0.5,1.3-0.5V40.4z M91.8,46.6c0,0.6,0.6,1,1.8,1c1.5,0,2.1-0.4,2.1-1c0-0.5-0.4-1-2.2-1
				C92.2,45.6,91.8,46.1,91.8,46.6z M93.7,43.5c1,0,1.6-0.5,1.6-1.5c0-1-0.6-1.5-1.6-1.5c-1,0-1.6,0.6-1.6,1.5
				C92.1,43,92.8,43.5,93.7,43.5z"/>
			<path d="M98.9,43c0,1.4,0.6,2.5,1.9,2.5c0.8,0,1.2-0.3,1.7-1.2l0.6,0.3c-0.6,1.1-1.2,1.5-2.4,1.5c-1.6,0-2.6-1-2.6-3.1
				c0-1.9,0.9-3.1,2.5-3.1c1.6,0,2.4,1.3,2.4,3.1H98.9z M102.4,42.5c-0.1-1.2-0.7-2-1.7-2c-1.2,0-1.7,1.2-1.7,2H102.4z"/>
			<path d="M105.7,46v-6h0.7v0.9c0.6-0.6,1.1-1,2-1c0.7,0,1.3,0.4,1.5,1.1c0.5-0.6,1.1-1.1,2-1.1c1,0,1.6,0.6,1.6,1.6V46h-0.7v-4.5
				c0-0.7-0.4-1-1-1c-0.5,0-1.4,0.6-1.8,1.1V46h-0.7v-4.5c0-0.7-0.4-1-1-1c-0.5,0-1.4,0.6-1.8,1.1V46H105.7z"/>
			<path d="M116.5,43c0,1.4,0.6,2.5,1.9,2.5c0.8,0,1.2-0.3,1.7-1.2l0.6,0.3c-0.6,1.1-1.2,1.5-2.4,1.5c-1.6,0-2.6-1-2.6-3.1
				c0-1.9,0.9-3.1,2.5-3.1c1.6,0,2.4,1.3,2.4,3.1H116.5z M120,42.5c-0.1-1.2-0.7-2-1.7-2c-1.2,0-1.7,1.2-1.7,2H120z"/>
			<path d="M123.3,46v-6h0.7V41c0.6-0.7,1.2-1.1,2-1.1c1.2,0,1.8,0.7,1.8,2V46h-0.7v-4c0-1-0.3-1.5-1.2-1.5c-0.7,0-1.2,0.4-1.9,1.1
				V46H123.3z"/>
			<path d="M130.9,40v-2h0.7v2h1.3v0.6h-1.3V45c0,0.4,0.2,0.6,0.6,0.6c0.2,0,0.5-0.1,0.7-0.1V46c-0.2,0-0.5,0.1-0.7,0.1
				c-1,0-1.3-0.3-1.3-1v-4.5H130V40H130.9z"/>
			<path d="M149.8,44.6c0.6,0.8,1.1,1,1.9,1c0.8,0,1.3-0.5,1.3-1.1c0-1.7-3.5-0.8-3.5-2.9c0-1.1,0.9-1.6,1.9-1.6
				c1,0,1.6,0.4,2.1,1.1l-0.5,0.4c-0.4-0.6-0.8-0.9-1.6-0.9c-0.7,0-1.2,0.3-1.2,1c0,1.5,3.5,0.6,3.5,2.9c0,1.1-1,1.7-2.1,1.7
				c-0.9,0-1.7-0.4-2.3-1.2L149.8,44.6z"/>
			<path d="M157.8,44.9L157.8,44.9l1.7-4.9h0.7l-2.2,6.4c-0.4,1.2-0.8,1.7-1.9,1.7c-0.3,0-0.5,0-0.6-0.1v-0.6c0.2,0,0.4,0.1,0.7,0.1
				c0.5,0,1-0.4,1.3-1.7l-2.1-5.9h0.8L157.8,44.9z"/>
			<path d="M162.3,44.6c0.6,0.8,1.1,1,1.9,1c0.8,0,1.3-0.5,1.3-1.1c0-1.7-3.5-0.8-3.5-2.9c0-1.1,0.9-1.6,1.9-1.6
				c1,0,1.6,0.4,2.1,1.1l-0.5,0.4c-0.4-0.6-0.8-0.9-1.6-0.9c-0.7,0-1.2,0.3-1.2,1c0,1.5,3.5,0.6,3.5,2.9c0,1.1-1,1.7-2.1,1.7
				c-0.9,0-1.7-0.4-2.3-1.2L162.3,44.6z"/>
			<path d="M168.8,40v-2h0.7v2h1.3v0.6h-1.3V45c0,0.4,0.2,0.6,0.6,0.6c0.2,0,0.5-0.1,0.7-0.1V46c-0.2,0-0.5,0.1-0.7,0.1
				c-1,0-1.3-0.3-1.3-1v-4.5h-0.9V40H168.8z"/>
			<path d="M173.2,43c0,1.4,0.6,2.5,1.9,2.5c0.8,0,1.2-0.3,1.7-1.2l0.6,0.3c-0.6,1.1-1.2,1.5-2.4,1.5c-1.6,0-2.6-1-2.6-3.1
				c0-1.9,0.9-3.1,2.5-3.1c1.6,0,2.4,1.3,2.4,3.1H173.2z M176.7,42.5c-0.1-1.2-0.7-2-1.7-2c-1.2,0-1.7,1.2-1.7,2H176.7z"/>
			<path d="M180,46v-6h0.7v0.9c0.6-0.6,1.1-1,2-1c0.7,0,1.3,0.4,1.5,1.1c0.5-0.6,1.1-1.1,2-1.1c1,0,1.6,0.6,1.6,1.6V46h-0.7v-4.5
				c0-0.7-0.4-1-1-1c-0.5,0-1.4,0.6-1.8,1.1V46h-0.7v-4.5c0-0.7-0.4-1-1-1c-0.5,0-1.4,0.6-1.8,1.1V46H180z"/>
		</g>
		<rect x="45.2" y="42.8" fill="#00AEEF" width="11.4" height="0.5"/>
		<rect x="135.5" y="42.8" fill="#00AEEF" width="11.4" height="0.5"/>
	</g>
	<g>
		<g>
			<rect x="168.4" y="6.1" width="1.5" height="6.7"/>
			<path fill="#00AEEF" d="M179.5,0l-7.4,4.3L164.7,0l-8.2,4.7v9.5l8.2,4.7l7.4-4.3l7.4,4.3l8.2-4.7V4.7L179.5,0z M158.1,13.3V5.7
				l6.6-3.8l6.6,3.8v7.6l-6.6,3.8L158.1,13.3z M186.1,13.3l-6.6,3.8l-6.6-3.8V5.7l6.6-3.8l6.6,3.8V13.3z"/>
		</g>
		<g>
			<polygon points="10,23.3 10,23.3 4.1,4.8 0.2,4.8 0.2,27.7 2.5,27.7 2.5,6.8 2.6,6.8 9,27.7 11,27.7 17.4,6.8 17.5,6.8 
				17.5,27.7 19.8,27.7 19.8,4.8 15.8,4.8 			"/>
			<path d="M33.8,4.5c-5.6,0-8.9,4.1-8.9,11.8c0,7.6,3.3,11.8,8.9,11.8c5.6,0,8.9-4.1,8.9-11.8C42.7,8.6,39.4,4.5,33.8,4.5z
				 M33.8,25.9c-4,0-6.4-3.1-6.4-9.6c0-6.5,2.4-9.6,6.4-9.6c4,0,6.4,3.1,6.4,9.6C40.2,22.8,37.8,25.9,33.8,25.9z"/>
			<polygon points="50.3,4.8 47.8,4.8 47.8,27.7 61.2,27.7 61.2,25.6 50.3,25.6 			"/>
			<polygon points="68,16.8 76,16.8 76,14.6 68,14.6 68,7 79.2,7 79.2,4.8 65.5,4.8 65.5,27.7 79.8,27.7 79.8,25.6 68,25.6 			"/>
			<path d="M92.1,25.9c-3.8,0-6.4-3-6.4-9.6c0-6.6,2.6-9.6,5.9-9.6c3.4,0,4.9,2,5.7,5.2l2.4-0.7c-1-4.2-3.5-6.7-7.7-6.7
				c-5.5,0-8.8,4.3-8.8,11.8c0,8,3.6,11.8,8.8,11.8c4.7,0,7-2.9,8.1-7.2l-2.3-0.4C97,23.2,95.7,25.9,92.1,25.9z"/>
			<path d="M121.6,17.6h7.8v-3.7h-7.8V8.5h10.8V4.8h-11.3h-3.2h-1.1v14.5c0,3.7-1.5,5-4.4,5c-2.9,0-4.4-1.3-4.4-5V4.8h-4.4v14.3
				c0,6.7,4.1,8.9,8.8,8.9c2.1,0,4-0.4,5.5-1.5v1.2h14.9V24h-11.1V17.6z"/>
			<polygon points="139.4,25.6 139.4,4.8 136.9,4.8 136.9,27.7 150.3,27.7 150.3,25.6 			"/>
		</g>
	</g>
</g>
</svg>
